HIERARCHY
ROOT Hips
{
	OFFSET -1.602300 6.242603 43.997101
	CHANNELS 6 Xposition Yposition Zposition Zrotation Xrotation Yrotation
	JOINT Chest
	{
		OFFSET -0.204900 1.598101 7.917301
		CHANNELS 6 Xposition Yposition Zposition Zrotation Xrotation Yrotation
		JOINT Chest2
		{
			OFFSET 0.000000 0.000000 3.404099
			CHANNELS 6 Xposition Yposition Zposition Zrotation Xrotation Yrotation
			JOINT Neck
			{
				OFFSET 0.000000 0.000000 7.928600
				CHANNELS 6 Xposition Yposition Zposition Zrotation Xrotation Yrotation
				JOINT Head
				{
					OFFSET 0.000000 0.000000 2.173897
					CHANNELS 6 Xposition Yposition Zposition Zrotation Xrotation Yrotation
					End Site
					{
						OFFSET 0.000000 0.000001 10.404503
					}
				}
			}
			JOINT LeftCollar
			{
				OFFSET 2.833800 -1.396299 4.843300
				CHANNELS 6 Xposition Yposition Zposition Zrotation Xrotation Yrotation
				JOINT LeftShoulder
				{
					OFFSET 4.363600 0.000000 0.000000
					CHANNELS 6 Xposition Yposition Zposition Zrotation Xrotation Yrotation
					JOINT LeftElbow
					{
						OFFSET 0.000000 -0.000001 -10.306900
						CHANNELS 6 Xposition Yposition Zposition Zrotation Xrotation Yrotation
						JOINT LeftWrist
						{
							OFFSET 0.000000 -0.000001 -12.404900
							CHANNELS 6 Xposition Yposition Zposition Zrotation Xrotation Yrotation
							End Site
							{
								OFFSET 0.000000 0.000000 -2.173901
							}
						}
					}
				}
			}
			JOINT RightCollar
			{
				OFFSET -2.354800 -1.897200 5.063099
				CHANNELS 6 Xposition Yposition Zposition Zrotation Xrotation Yrotation
				JOINT RightShoulder
				{
					OFFSET -4.375800 0.000000 0.000000
					CHANNELS 6 Xposition Yposition Zposition Zrotation Xrotation Yrotation
					JOINT RightElbow
					{
						OFFSET 0.000000 -0.000001 -10.005001
						CHANNELS 6 Xposition Yposition Zposition Zrotation Xrotation Yrotation
						JOINT RightWrist
						{
							OFFSET 0.000000 -0.000001 -13.174900
							CHANNELS 6 Xposition Yposition Zposition Zrotation Xrotation Yrotation
							End Site
							{
								OFFSET 0.000000 0.000000 -2.173901
							}
						}
					}
				}
			}
		}
	}
	JOINT LeftHip
	{
		OFFSET 2.240600 0.386800 -2.614101
		CHANNELS 6 Xposition Yposition Zposition Zrotation Xrotation Yrotation
		JOINT LeftKnee
		{
			OFFSET 0.000000 -0.000001 -18.592899
			CHANNELS 6 Xposition Yposition Zposition Zrotation Xrotation Yrotation
			JOINT LeftAnkle
			{
				OFFSET 0.000000 -0.000001 -18.765800
				CHANNELS 6 Xposition Yposition Zposition Zrotation Xrotation Yrotation
				End Site
				{
					OFFSET 0.000000 -8.655000 0.000000
				}
			}
		}
	}
	JOINT RightHip
	{
		OFFSET -2.014900 -0.220900 -2.615898
		CHANNELS 6 Xposition Yposition Zposition Zrotation Xrotation Yrotation
		JOINT RightKnee
		{
			OFFSET 0.000000 -0.000001 -18.633900
			CHANNELS 6 Xposition Yposition Zposition Zrotation Xrotation Yrotation
			JOINT RightAnkle
			{
				OFFSET 0.000000 -0.000001 -18.285101
				CHANNELS 6 Xposition Yposition Zposition Zrotation Xrotation Yrotation
				End Site
				{
					OFFSET 0.000000 -7.524500 0.000000
				}
			}
		}
	}
}
MOTION
Frames: 9
Frame Time: 0.041667
-3.935399 26.283506 7.173508 -14.093916 -13.612297 3.059615 -0.204901 1.598100 7.917302 -27.495972 17.114671 5.603581 0.000002 0.000002 3.404104 3.327989 -20.895620 -2.080319 0.000003 -0.000004 7.928599 -19.545835 24.009698 12.777517 0.000001 0.000001 2.173910 -2.615674 1.635170 -2.687929 2.833802 -1.396300 4.843305 27.065803 4.894295 19.557495 4.363602 0.000010 -0.000014 -99.951206 19.722238 -110.090444 -0.000001 0.000006 -10.306898 582.417716 -142.562796 569.080488 0.000008 -0.000000 -12.404897 -4.164024 348.301071 -312.077490 -2.354800 -1.897200 5.063106 9.549988 19.389816 -7.411373 -4.375799 0.000002 -0.000015 70.142471 0.206550 140.467949 0.000001 0.000003 -10.004991 -589.548926 -166.045901 -565.072915 -0.000009 -0.000002 -13.174901 -309.468823 -29.515857 -32.067574 2.240597 0.386804 -2.614103 147.430562 -31.504651 126.784239 0.000001 -0.000000 -18.592894 -182.630775 65.678116 163.146718 0.000001 0.000001 -18.765797 -24.349394 45.032048 10.279279 -2.014896 -0.220898 -2.615900 -110.120381 -18.377913 -85.208037 0.000000 0.000001 -18.633881 143.285512 13.686795 -164.420371 -0.000004 -0.000005 -18.285082 -33.903208 33.897303 -189.263053
-3.968499 26.295406 7.181202 -13.652532 -13.540933 2.900872 -0.204901 1.598096 7.917308 -27.284960 17.062321 5.441682 0.000000 0.000001 3.404100 3.285582 -21.009807 -2.087855 -0.000000 0.000000 7.928599 -19.553360 23.883227 12.926558 0.000002 -0.000001 2.173896 -2.745114 1.626020 -2.580788 2.833802 -1.396299 4.843306 30.235431 4.963281 20.149963 4.363603 0.000007 -0.000006 -102.793165 19.918401 -110.086394 0.000001 0.000005 -10.306897 584.185643 -143.487262 569.327905 0.000006 0.000001 -12.404898 -4.138589 348.186269 -311.410509 -2.354801 -1.897201 5.063105 8.970717 19.489725 -7.160608 -4.375800 0.000007 -0.000010 70.305671 0.660883 141.777898 0.000003 0.000004 -10.004992 -591.681365 -167.227729 -564.585404 -0.000009 -0.000003 -13.174900 -308.132674 -30.228652 -31.824177 2.240598 0.386798 -2.614101 147.294136 -31.383244 126.986057 0.000003 -0.000002 -18.592892 -176.493768 65.483981 156.139832 0.000001 0.000001 -18.765797 -18.980121 44.125594 7.168944 -2.014898 -0.220897 -2.615900 -110.535485 -18.396708 -85.198919 -0.000001 0.000002 -18.633881 143.261428 13.646458 -164.342930 -0.000004 -0.000004 -18.285084 -34.120890 33.841497 -189.045484
-4.003699 26.304403 7.188107 -13.262103 -13.451280 2.713686 -0.204900 1.598099 7.917305 -27.024671 16.984575 5.295789 0.000001 -0.000001 3.404102 3.247642 -21.088487 -2.090792 -0.000000 -0.000002 7.928599 -19.442383 23.778380 12.971450 0.000003 -0.000001 2.173897 -2.914607 1.614369 -2.502295 2.833801 -1.396299 4.843303 30.183992 3.737563 20.267065 4.363601 0.000010 -0.000006 -102.088782 19.212516 -110.126207 0.000001 0.000005 -10.306890 580.514389 -141.891743 566.206727 0.000003 0.000001 -12.404897 0.509301 347.924208 -310.776367 -2.354801 -1.897202 5.063106 8.358883 19.551594 -6.911161 -4.375797 0.000005 -0.000015 70.455082 1.018848 143.006649 0.000001 0.000003 -10.004994 -592.973965 -167.806615 -563.923804 -0.000003 -0.000003 -13.174894 -308.340912 -30.681070 -31.891721 2.240600 0.386804 -2.614101 147.200371 -31.223110 127.157495 0.000003 0.000003 -18.592894 -173.384052 65.833038 151.859858 0.000000 0.000001 -18.765797 -15.766725 43.235080 6.112770 -2.014896 -0.220899 -2.615898 -110.920838 -18.420368 -85.208741 -0.000001 0.000003 -18.633883 143.193960 13.588612 -164.255108 -0.000005 -0.000007 -18.285084 -34.373296 33.784711 -188.796005
-4.040299 26.309605 7.196514 -12.898000 -13.343967 2.506937 -0.204900 1.598098 7.917303 -26.752227 16.878835 5.165769 -0.000002 0.000005 3.404104 3.208726 -21.151120 -2.091903 0.000004 -0.000005 7.928605 -19.326942 23.687482 12.992976 -0.000001 0.000000 2.173908 -3.073728 1.565364 -2.389838 2.833808 -1.396300 4.843308 31.676860 3.441600 20.939941 4.363604 0.000010 -0.000009 -103.180546 19.038532 -110.331625 -0.000000 0.000005 -10.306898 580.283364 -141.912971 565.320551 0.000009 0.000000 -12.404898 2.089832 347.830034 -310.198888 -2.354796 -1.897202 5.063099 7.796736 19.605148 -6.754564 -4.375798 0.000007 -0.000016 70.510638 1.235644 144.191482 0.000001 0.000003 -10.004997 -593.409239 -167.751878 -563.255102 -0.000005 -0.000005 -13.174898 -309.664111 -30.870833 -32.335075 2.240598 0.386802 -2.614108 147.117739 -31.017931 127.273745 0.000002 0.000001 -18.592894 -175.410815 67.639896 152.375223 0.000001 0.000001 -18.765799 -15.508918 42.728680 6.581053 -2.014899 -0.220896 -2.615897 -111.307372 -18.410949 -85.226117 0.000000 0.000003 -18.633881 143.108528 13.502661 -164.146043 -0.000004 -0.000005 -18.285084 -34.665208 33.728977 -188.510817
-4.078100 26.311207 7.206707 -12.406333 -13.193791 2.366573 -0.204901 1.598100 7.917308 -26.611443 16.741451 4.987069 0.000003 -0.000002 3.404104 3.157973 -21.208550 -2.093336 -0.000002 0.000001 7.928595 -19.340589 23.563447 13.171703 -0.000002 0.000001 2.173895 -3.108988 1.549640 -2.358990 2.833799 -1.396297 4.843300 32.307563 2.951827 21.695088 4.363604 0.000009 -0.000006 -103.279912 19.110091 -110.594751 -0.000000 0.000007 -10.306897 580.298937 -142.027541 564.357603 0.000010 -0.000001 -12.404900 3.759568 347.719303 -309.577805 -2.354804 -1.897200 5.063100 7.428517 19.666768 -6.761994 -4.375799 0.000007 -0.000015 70.532802 1.387501 145.378473 -0.000000 0.000009 -10.004994 -593.766212 -167.708219 -562.607928 -0.000005 -0.000002 -13.174898 -311.056295 -30.993657 -32.952729 2.240598 0.386800 -2.614105 146.946753 -30.811017 127.420813 0.000002 0.000000 -18.592890 -177.583566 69.561966 153.004338 0.000001 0.000000 -18.765797 -15.174377 42.351879 6.954970 -2.014897 -0.220898 -2.615893 -111.859046 -18.285169 -85.258793 0.000000 0.000004 -18.633883 143.033204 13.383212 -164.017718 -0.000004 -0.000006 -18.285086 -34.994611 33.678532 -188.193268
-4.118198 26.310404 7.220211 -12.036526 -13.020848 2.154492 -0.204901 1.598100 7.917306 -26.365736 16.570831 4.845766 -0.000001 0.000006 3.404106 3.114101 -21.265420 -2.093745 0.000002 -0.000002 7.928599 -19.502176 23.383926 13.490144 0.000001 -0.000002 2.173908 -3.014590 1.588507 -2.401689 2.833804 -1.396295 4.843305 33.136731 2.746916 22.434972 4.363602 0.000010 -0.000002 -103.589818 19.376154 -111.036650 0.000003 0.000005 -10.306894 580.708912 -142.289083 563.497273 0.000010 0.000001 -12.404900 5.253768 347.613735 -308.976639 -2.354799 -1.897199 5.063105 7.032312 19.718661 -6.804726 -4.375799 0.000007 -0.000017 70.699070 1.479134 146.547951 0.000000 0.000008 -10.004996 -594.004285 -167.661227 -561.981463 -0.000002 -0.000006 -13.174898 -312.570111 -30.979160 -33.486249 2.240595 0.386804 -2.614106 146.882385 -30.580417 127.495330 0.000003 0.000001 -18.592892 -179.941320 71.553342 153.812828 0.000000 0.000001 -18.765797 -15.243618 42.108266 7.349612 -2.014900 -0.220895 -2.615898 -112.318588 -18.140501 -85.332121 -0.000001 0.000003 -18.633881 142.993302 13.249147 -163.887520 -0.000006 -0.000005 -18.285082 -35.332835 33.625636 -187.866252
-4.160699 26.306004 7.238514 -11.658647 -12.831643 1.941712 -0.204900 1.598098 7.917305 -26.141009 16.383291 4.733075 0.000001 0.000001 3.404103 3.072128 -21.308592 -2.093043 -0.000000 -0.000003 7.928605 -19.785065 23.132299 13.825258 0.000000 0.000000 2.173902 -2.794780 1.665567 -2.425877 2.833803 -1.396300 4.843306 33.831324 2.593311 23.064210 4.363602 0.000007 -0.000006 -103.580591 19.668761 -111.684678 -0.000002 0.000006 -10.306902 582.099211 -142.662093 563.292422 0.000009 0.000002 -12.404900 6.065167 347.637176 -308.386483 -2.354799 -1.897204 5.063106 6.704775 19.761443 -6.994004 -4.375797 0.000006 -0.000012 70.883369 1.554442 147.732921 -0.000001 0.000008 -10.004999 -594.447647 -167.650804 -561.450948 -0.000010 -0.000004 -13.174894 -313.898610 -30.826406 -34.034713 2.240598 0.386802 -2.614104 146.807594 -30.342856 127.513007 0.000002 0.000001 -18.592894 -182.332856 73.559286 154.644444 0.000001 0.000001 -18.765795 -15.480115 42.009748 7.376489 -2.014898 -0.220896 -2.615898 -112.783034 -17.971654 -85.400410 -0.000001 0.000002 -18.633879 142.971296 13.105186 -163.753239 -0.000005 -0.000007 -18.285086 -35.675157 33.561514 -187.530616
-4.204099 26.297909 7.262306 -11.214126 -12.608814 1.749743 -0.204899 1.598102 7.917310 -25.970705 16.169558 4.606900 0.000001 -0.000000 3.404097 3.050350 -21.347744 -2.145318 0.000003 -0.000005 7.928600 -20.178739 22.909716 14.303828 0.000001 -0.000003 2.173903 -2.425323 1.663347 -2.497114 2.833807 -1.396302 4.843308 34.099084 2.893505 23.656529 4.363604 0.000005 -0.000006 -103.219192 20.034751 -112.860427 -0.000000 0.000002 -10.306897 583.821949 -143.224709 563.229256 0.000007 0.000001 -12.404901 6.838014 347.678677 -307.987764 -2.354800 -1.897204 5.063103 6.451287 19.806162 -7.240441 -4.375797 0.000005 -0.000008 70.970529 1.607708 148.931018 0.000003 0.000009 -10.005000 -595.086242 -167.717986 -561.102445 -0.000005 -0.000005 -13.174897 -314.945241 -30.602212 -34.404301 2.240597 0.386801 -2.614105 146.681290 -30.084917 127.513266 0.000002 0.000001 -18.592894 -184.721305 75.547110 155.505471 -0.000001 0.000000 -18.765793 -15.652989 42.190690 6.756697 -2.014896 -0.220899 -2.615899 -113.320058 -17.755109 -85.470221 -0.000001 0.000004 -18.633881 142.958960 12.941296 -163.612100 -0.000005 -0.000005 -18.285088 -36.035740 33.485180 -187.173029
-4.247599 26.288006 7.289703 -10.738002 -12.341805 1.558660 -0.204900 1.598096 7.917303 -25.843926 15.915502 4.475729 -0.000001 0.000003 3.404107 3.004053 -21.384308 -2.139085 0.000002 -0.000007 7.928597 -20.588864 22.613143 14.742110 0.000001 0.000002 2.173900 -2.172432 1.716539 -2.690985 2.833803 -1.396302 4.843301 34.472556 2.819656 24.004753 4.363604 0.000003 -0.000006 -102.810917 20.278128 -113.713873 0.000002 0.000009 -10.306896 585.978540 -143.854767 563.339851 0.000008 0.000002 -12.404900 7.427408 347.762251 -307.591340 -2.354800 -1.897205 5.063102 6.244448 19.820753 -7.482432 -4.375798 0.000002 -0.000015 71.075700 1.614425 150.038369 0.000001 0.000010 -10.005003 -596.072904 -167.907811 -560.804976 -0.000005 -0.000004 -13.174900 -315.625173 -30.373445 -34.585694 2.240597 0.386799 -2.614110 146.574753 -29.893505 127.519932 0.000002 0.000002 -18.592897 -187.216824 77.564373 156.506968 -0.000000 0.000000 -18.765797 -16.387859 42.192042 6.412311 -2.014897 -0.220899 -2.615900 -113.916265 -17.450975 -85.575385 -0.000001 0.000005 -18.633884 142.999053 12.756118 -163.472423 -0.000003 -0.000007 -18.285084 -36.414549 33.401346 -186.795101
